<svg height="200px" width="200px" version="1.1" id="Layer_1" xmlns="http://www.w3.org/2000/svg" xmlns:xlink="http://www.w3.org/1999/xlink" viewBox="0 0 512 512" xml:space="preserve" fill="#000000">
    <g id="SVGRepo_bgCarrier" stroke-width="0">
    </g>
    <g id="SVGRepo_tracerCarrier" stroke-linecap="round" stroke-linejoin="round">
    </g>
    <g id="SVGRepo_iconCarrier"> 
        <path style="fill:#cf9ca7;" d="M256,0C114.842,0,0,114.842,0,256s114.842,256,256,256s256-114.842,256-256S397.158,0,256,0z">
        </path> 
        <path style="fill:#99666f;" d="M367.632,236.266L256,166.496l-55.932-34.959c-7.174-4.484-16.215-4.723-23.617-0.621 c-7.399,4.101-11.99,11.895-11.99,20.356v209.455c0,8.46,4.591,16.255,11.99,20.356c3.516,1.949,7.401,2.917,11.281,2.917 c4.288,0,8.569-1.184,12.336-3.537L256,345.505l111.632-69.769c6.805-4.253,10.938-11.711,10.938-19.735 C378.57,247.977,374.436,240.519,367.632,236.266z">
        </path> 
        <path style="fill:#cf9ca7;" d="M200.068,380.463c-3.767,2.355-8.049,3.537-12.336,3.537c-3.88,0-7.765-0.968-11.281-2.917 c-7.399-4.101-11.99-11.895-11.99-20.356V151.273c0-8.46,4.591-16.255,11.99-20.356c7.402-4.102,16.443-3.863,23.617,0.621 L256,166.496V0C114.842,0,0,114.842,0,256s114.842,256,256,256V345.505L200.068,380.463z">
        </path> 
    </g>
</svg>